<svg width="483" height="351" viewBox="0 0 483 351" fill="none" xmlns="http://www.w3.org/2000/svg">
<rect x="149" y="3.5" width="331" height="232" fill="#7AF299" fill-opacity="0.1"/>
<path d="M149.5 219.5H480.5" stroke="#7AF299" stroke-opacity="0.2"/>
<path d="M149.5 203.5H480.5" stroke="#7AF299" stroke-opacity="0.2"/>
<path d="M149.5 187.5H480.5" stroke="#7AF299" stroke-opacity="0.2"/>
<path d="M149.5 171.5H480.5" stroke="#7AF299" stroke-opacity="0.2"/>
<path d="M149.5 155.5H480.5" stroke="#7AF299" stroke-opacity="0.2"/>
<path d="M149.5 139.5H480.5" stroke="#7AF299" stroke-opacity="0.2"/>
<path d="M149.5 123.5H480.5" stroke="#7AF299" stroke-opacity="0.2"/>
<path d="M149.5 107.5H480.5" stroke="#7AF299" stroke-opacity="0.2"/>
<path d="M149.5 91.5H480.5" stroke="#7AF299" stroke-opacity="0.2"/>
<path d="M149.5 75.5H480.5" stroke="#7AF299" stroke-opacity="0.2"/>
<path d="M149.5 59.5H480.5" stroke="#7AF299" stroke-opacity="0.2"/>
<path d="M149.5 43.5H480.5" stroke="#7AF299" stroke-opacity="0.2"/>
<path d="M149.5 27.5H480.5" stroke="#7AF299" stroke-opacity="0.2"/>
<path d="M149.5 11.5H480.5" stroke="#7AF299" stroke-opacity="0.2"/>
<path d="M149 3V235.5H480.5" stroke="#7AF299" stroke-width="5" stroke-linecap="round" stroke-linejoin="round"/>
<path d="M149.5 207.5L258.5 201.5L268 194L278.5 188L282.5 176.5L286.5 180.5L301.5 113L306.5 139.5H310.5L316 162L320.5 145.5L330.5 165L335 156.5L341 162L350 166.5L355 182.5L364.5 186L374.5 182.5L379 173.5L383.5 150L388 136.5L398.5 143.5L403 152.5L408 146.5L412.5 157.5L417 160L422 146.5L427.5 152.5L432 165L436.5 150L442 145L446 146.5L451.5 131.5L456 129.5L460.5 136.5L466 113.5L470.5 75.5L475.5 49.5" stroke="#7AF299" stroke-width="3" stroke-linejoin="round"/>
<circle cx="84.8298" cy="154.801" r="80.2444" fill="#F2FEF5"/>
<path d="M154.595 154.886C154.595 172.539 148.016 189.551 136.155 202.608L132.276 198.729C143.099 186.718 149.095 171.119 149.095 154.94C149.095 138.76 143.099 123.161 132.276 111.15L136.206 107.221C148.035 120.27 154.595 137.259 154.595 154.886Z" stroke="#7AF299"/>
<path d="M83.546 89.4365C67.365 89.4365 51.7642 95.4335 39.7529 106.259L35.7755 102.372C48.8316 90.5133 65.842 83.9365 83.4925 83.9365C101.145 83.9365 118.157 90.5148 131.214 102.376L127.335 106.255C115.324 95.4321 99.7251 89.4365 83.546 89.4365Z" stroke="#7AF299"/>
<path d="M17.957 155.008C17.957 171.179 23.9466 186.771 34.7601 198.78L30.8699 202.799C19.0122 189.744 12.436 172.734 12.436 155.084C12.436 137.432 19.0143 120.419 30.8758 107.363L34.7549 111.242C23.9446 123.25 17.957 138.839 17.957 155.008Z" stroke="#7AF299"/>
<path d="M83.4844 220.534C99.6654 220.534 115.266 214.537 127.278 203.711L131.255 207.598C118.199 219.457 101.188 226.034 83.5379 226.034C65.8854 226.034 48.8731 219.455 35.8164 207.594L39.6953 203.715C51.7061 214.538 67.3053 220.534 83.4844 220.534Z" stroke="#7AF299"/>
<g filter="url(#filter0_d)">
<path d="M84.5202 140.248H78.4478V152.22H88.0013V157.232H78.4478V169.203H84.8177C86.4543 169.203 98.2545 169.388 98.2362 155.275C98.2179 141.162 86.7914 140.248 84.5202 140.248Z" fill="#7AF299"/>
<path d="M83.5 112.24C60.0277 112.24 41 131.268 41 154.74C41 178.213 60.0277 197.24 83.5 197.24C106.972 197.24 126 178.213 126 154.74C126 131.268 106.972 112.24 83.5 112.24ZM85.1698 177.694H69.7785V157.232H64.3529V152.22H69.778V131.757H82.9879C86.1129 131.757 106.812 131.108 106.812 155.11C106.812 179.508 85.1703 177.694 85.1703 177.694H85.1698Z" fill="#7AF299"/>
</g>
<path d="M83.4847 238.5C66.9713 238.497 50.8295 233.598 37.1004 224.421C23.3712 215.245 12.6712 202.204 6.35317 186.947C0.0351492 171.69 -1.61714 154.902 1.60521 138.706C4.82756 122.51 12.7799 107.633 24.4566 95.9566C36.1334 84.2799 51.0102 76.3276 67.2062 73.1052C83.4022 69.8829 100.19 71.5351 115.447 77.8532C130.704 84.1712 143.745 94.8712 152.921 108.6C162.098 122.33 166.997 138.471 167 154.985C167.002 165.953 164.843 176.814 160.647 186.947C156.451 197.08 150.299 206.288 142.543 214.043C134.788 221.799 125.58 227.951 115.447 232.147C105.314 236.343 94.4527 238.502 83.4847 238.5ZM83.4847 78.0113C68.2708 78.0234 53.4019 82.5455 40.7574 91.0061C28.1129 99.4667 18.2605 111.486 12.4453 125.545C6.63017 139.603 5.11338 155.071 8.08666 169.991C11.0599 184.912 18.3898 198.616 29.1499 209.372C39.9099 220.128 53.617 227.452 68.5388 230.419C83.4606 233.387 98.9271 231.864 112.984 226.043C127.04 220.222 139.055 210.365 147.511 197.717C155.966 185.069 160.483 170.199 160.489 154.985C160.493 144.873 158.504 134.859 154.635 125.516C150.766 116.174 145.094 107.685 137.942 100.537C130.79 93.3877 122.3 87.7186 112.955 83.8536C103.611 79.9885 93.5967 78.0033 83.4847 78.0113Z" fill="#7AF299"/>
<circle cx="279.83" cy="266.801" r="80.2444" fill="#F2FEF5"/>
<path d="M349.595 266.886C349.595 284.539 343.016 301.551 331.155 314.608L327.276 310.729C338.099 298.718 344.095 283.119 344.095 266.94C344.095 250.76 338.099 235.161 327.276 223.15L331.206 219.221C343.035 232.27 349.595 249.259 349.595 266.886Z" stroke="#7AF299"/>
<path d="M278.546 201.437C262.365 201.437 246.764 207.433 234.753 218.259L230.775 214.372C243.832 202.513 260.842 195.937 278.493 195.937C296.145 195.937 313.157 202.515 326.214 214.376L322.335 218.255C310.324 207.432 294.725 201.437 278.546 201.437Z" stroke="#7AF299"/>
<path d="M212.957 267.008C212.957 283.179 218.947 298.771 229.76 310.78L225.87 314.799C214.012 301.744 207.436 284.734 207.436 267.084C207.436 249.432 214.014 232.419 225.876 219.363L229.755 223.242C218.945 235.25 212.957 250.839 212.957 267.008Z" stroke="#7AF299"/>
<path d="M278.484 332.534C294.665 332.534 310.266 326.537 322.278 315.711L326.255 319.598C313.199 331.457 296.188 338.034 278.538 338.034C260.885 338.034 243.873 331.455 230.816 319.594L234.695 315.715C246.706 326.538 262.305 332.534 278.484 332.534Z" stroke="#7AF299"/>
<g filter="url(#filter1_d)">
<path d="M278.053 215.645L277.443 218.004V286.466L278.053 287.159L305.983 268.374L278.053 215.645Z" fill="#7AF299"/>
<path d="M278.053 215.645L250.123 268.374L278.053 287.159V253.93V215.645Z" fill="#7AF299"/>
<path d="M278.053 293.179L277.709 293.655V318.043L278.053 319.186L306 274.403L278.053 293.179Z" fill="#7AF299"/>
<path d="M278.053 319.186V293.179L250.123 274.403L278.053 319.186Z" fill="#7AF299"/>
<path d="M278.052 287.163L305.981 268.378L278.052 253.934V287.163Z" fill="#7AF299"/>
<path d="M250.123 268.378L278.053 287.163V253.934L250.123 268.378Z" fill="#7AF299"/>
</g>
<path d="M278.485 350.5C261.971 350.497 245.83 345.598 232.1 336.421C218.371 327.245 207.671 314.204 201.353 298.947C195.035 283.69 193.383 266.902 196.605 250.706C199.828 234.51 207.78 219.633 219.457 207.957C231.133 196.28 246.01 188.328 262.206 185.105C278.402 181.883 295.19 183.535 310.447 189.853C325.704 196.171 338.745 206.871 347.921 220.6C357.098 234.33 361.997 250.471 362 266.985C362.002 277.953 359.843 288.814 355.647 298.947C351.451 309.08 345.299 318.288 337.543 326.043C329.788 333.799 320.58 339.951 310.447 344.147C300.314 348.343 289.453 350.502 278.485 350.5ZM278.485 190.011C263.271 190.023 248.402 194.546 235.757 203.006C223.113 211.467 213.26 223.486 207.445 237.545C201.63 251.603 200.113 267.071 203.087 281.991C206.06 296.912 213.39 310.616 224.15 321.372C234.91 332.128 248.617 339.452 263.539 342.419C278.461 345.387 293.927 343.864 307.984 338.043C322.04 332.222 334.055 322.365 342.511 309.717C350.966 297.069 355.483 282.199 355.489 266.985C355.493 256.873 353.504 246.859 349.635 237.516C345.766 228.174 340.094 219.685 332.942 212.537C325.79 205.388 317.3 199.719 307.955 195.854C298.611 191.989 288.597 190.003 278.485 190.011Z" fill="#7AF299"/>
<circle cx="147.83" cy="248.801" r="80.2444" fill="#F2FEF5"/>
<path d="M217.595 248.886C217.595 266.539 211.016 283.551 199.155 296.608L195.276 292.729C206.099 280.718 212.095 265.119 212.095 248.94C212.095 232.76 206.099 217.161 195.276 205.15L199.206 201.221C211.035 214.27 217.595 231.259 217.595 248.886Z" stroke="#7AF299"/>
<path d="M146.546 183.437C130.365 183.437 114.764 189.433 102.753 200.259L98.7755 196.372C111.832 184.513 128.842 177.937 146.493 177.937C164.145 177.937 181.157 184.515 194.214 196.376L190.335 200.255C178.324 189.432 162.725 183.437 146.546 183.437Z" stroke="#7AF299"/>
<path d="M80.957 249.008C80.957 265.179 86.9466 280.771 97.7601 292.78L93.8699 296.799C82.0122 283.744 75.436 266.734 75.436 249.084C75.436 231.432 82.0143 214.419 93.8758 201.363L97.7549 205.242C86.9446 217.25 80.957 232.839 80.957 249.008Z" stroke="#7AF299"/>
<path d="M146.484 314.534C162.665 314.534 178.266 308.537 190.278 297.711L194.255 301.598C181.199 313.457 164.188 320.034 146.538 320.034C128.885 320.034 111.873 313.455 98.8164 301.594L102.695 297.715C114.706 308.538 130.305 314.534 146.484 314.534Z" stroke="#7AF299"/>
<g filter="url(#filter2_d)">
<path d="M175.449 233.7C174.532 224.132 166.278 220.922 155.839 219.944V206.769H147.769V219.699C145.644 219.699 143.474 219.699 141.318 219.699V206.769H133.309V220.036H116.939V228.671C116.939 228.671 122.9 228.564 122.809 228.671C123.884 228.553 124.962 228.857 125.818 229.518C126.673 230.18 127.238 231.147 127.394 232.217V268.534C127.371 268.911 127.273 269.28 127.105 269.619C126.937 269.957 126.703 270.259 126.416 270.505C126.135 270.757 125.806 270.949 125.448 271.069C125.091 271.19 124.713 271.238 124.337 271.209C124.444 271.3 118.468 271.209 118.468 271.209L116.939 280.853H133.156V294.334H141.227V281.052H147.677V294.273H155.762V280.945C169.396 280.12 178.903 276.757 180.096 263.994C181.059 253.723 176.229 249.138 168.51 247.288C173.202 244.98 176.106 240.7 175.449 233.7ZM164.138 262.405C164.138 272.431 146.958 271.285 141.487 271.285V253.494C146.958 253.509 164.138 251.935 164.138 262.405ZM160.394 237.338C160.394 246.509 146.057 245.393 141.502 245.393V229.222C146.057 229.222 160.394 227.785 160.394 237.338Z" fill="#7AF299"/>
</g>
<path d="M146.485 332.5C129.971 332.497 113.83 327.598 100.1 318.421C86.3712 309.245 75.6712 296.204 69.3532 280.947C63.0351 265.69 61.3829 248.902 64.6052 232.706C67.8276 216.51 75.7799 201.633 87.4566 189.957C99.1334 178.28 114.01 170.328 130.206 167.105C146.402 163.883 163.19 165.535 178.447 171.853C193.704 178.171 206.745 188.871 215.921 202.6C225.098 216.33 229.997 232.471 230 248.985C230.002 259.953 227.843 270.814 223.647 280.947C219.451 291.08 213.299 300.288 205.543 308.043C197.788 315.799 188.58 321.951 178.447 326.147C168.314 330.343 157.453 332.502 146.485 332.5ZM146.485 172.011C131.271 172.023 116.402 176.546 103.757 185.006C91.1129 193.467 81.2605 205.486 75.4453 219.545C69.6302 233.603 68.1134 249.071 71.0867 263.991C74.0599 278.912 81.3898 292.616 92.1499 303.372C102.91 314.128 116.617 321.452 131.539 324.419C146.461 327.387 161.927 325.864 175.984 320.043C190.04 314.222 202.055 304.365 210.511 291.717C218.966 279.069 223.483 264.199 223.489 248.985C223.493 238.873 221.504 228.859 217.635 219.516C213.766 210.174 208.094 201.685 200.942 194.537C193.79 187.388 185.3 181.719 175.955 177.854C166.611 173.989 156.597 172.003 146.485 172.011Z" fill="#7AF299"/>
<defs>
<filter id="filter0_d" x="37" y="108.24" width="93" height="93" filterUnits="userSpaceOnUse" color-interpolation-filters="sRGB">
<feFlood flood-opacity="0" result="BackgroundImageFix"/>
<feColorMatrix in="SourceAlpha" type="matrix" values="0 0 0 0 0 0 0 0 0 0 0 0 0 0 0 0 0 0 127 0"/>
<feOffset/>
<feGaussianBlur stdDeviation="2"/>
<feColorMatrix type="matrix" values="0 0 0 0 0.478431 0 0 0 0 0.94902 0 0 0 0 0.6 0 0 0 1 0"/>
<feBlend mode="normal" in2="BackgroundImageFix" result="effect1_dropShadow"/>
<feBlend mode="normal" in="SourceGraphic" in2="effect1_dropShadow" result="shape"/>
</filter>
<filter id="filter1_d" x="246.123" y="211.645" width="63.8767" height="111.541" filterUnits="userSpaceOnUse" color-interpolation-filters="sRGB">
<feFlood flood-opacity="0" result="BackgroundImageFix"/>
<feColorMatrix in="SourceAlpha" type="matrix" values="0 0 0 0 0 0 0 0 0 0 0 0 0 0 0 0 0 0 127 0"/>
<feOffset/>
<feGaussianBlur stdDeviation="2"/>
<feColorMatrix type="matrix" values="0 0 0 0 0.478431 0 0 0 0 0.94902 0 0 0 0 0.6 0 0 0 1 0"/>
<feBlend mode="normal" in2="BackgroundImageFix" result="effect1_dropShadow"/>
<feBlend mode="normal" in="SourceGraphic" in2="effect1_dropShadow" result="shape"/>
</filter>
<filter id="filter2_d" x="112.939" y="202.769" width="71.2779" height="95.5657" filterUnits="userSpaceOnUse" color-interpolation-filters="sRGB">
<feFlood flood-opacity="0" result="BackgroundImageFix"/>
<feColorMatrix in="SourceAlpha" type="matrix" values="0 0 0 0 0 0 0 0 0 0 0 0 0 0 0 0 0 0 127 0"/>
<feOffset/>
<feGaussianBlur stdDeviation="2"/>
<feColorMatrix type="matrix" values="0 0 0 0 0.478431 0 0 0 0 0.94902 0 0 0 0 0.6 0 0 0 1 0"/>
<feBlend mode="normal" in2="BackgroundImageFix" result="effect1_dropShadow"/>
<feBlend mode="normal" in="SourceGraphic" in2="effect1_dropShadow" result="shape"/>
</filter>
</defs>
</svg>
