<svg id="Layer_1" xmlns="http://www.w3.org/2000/svg" xmlns:xlink="http://www.w3.org/1999/xlink" viewBox="0 0 419.5 305.3"><style>.st0{fill-rule:evenodd;clip-rule:evenodd;fill:#2bace2}.st0,.st1{clip-path:url(#SVGID_2_)}.st2{fill:#2bace2}.st2,.st3,.st4,.st5{fill-rule:evenodd;clip-rule:evenodd}.st3{opacity:.7;fill:#2bace2}.st4{fill:#eeedee}.st5{fill:#e6e7e7}</style><defs><path id="SVGID_1_" d="M0 0h419.5v305.3H0z"/></defs><clipPath id="SVGID_2_"><use xlink:href="#SVGID_1_" overflow="visible"/></clipPath><path class="st0" d="M182.9 289.2l2 22.1h-27.7L45.6 299.6 2.2 195.8 63-.5l171.1-2.8L220.3 256z"/><g class="st1"><path class="st2" d="M351.6-.7l67.9 312h-93.2L315.8 256h-96.1l-20.1 55.3h-93.2L228.9-.7h122.7zm-48.4 189.8L283 82.3l-38.9 106.8h59.1z"/><path class="st3" d="M244.1 189.1L219.7 256h56.6l23.9-66.9z"/></g><g class="st1"><path class="st4" d="M126.4-6.7l-16.3 185.8c-2.1 24.5-24 44.6-48.5 44.6-19.7 0-49.2-4.9-63.7-35.5L-8.8 265c18 27.1 48.9 44.8 85.2 44.8 61.3 0 115.8-50.1 121.2-111.4l17.9-205h-89.1z"/><path class="st5" d="M110.2 179.2L98.9 307.5c-7.3 1.5-14.8 2.3-22.5 2.3-11 0-21.5-1.6-31.3-4.6l7.2-81.8c3.3.3 6.5.4 9.4.4 24.5-.1 46.3-20.1 48.5-44.6z"/></g></svg>