<svg width="148" height="42" viewBox="0 0 148 42" fill="none" xmlns="http://www.w3.org/2000/svg">
<path d="M43.957 16.1482V0H50.257C51.2949 0 52.2121 0.0965511 53.057 0.265516C53.8777 0.458618 54.5777 0.748271 55.157 1.15861C55.7363 1.56896 56.1707 2.12412 56.4845 2.77584C56.7983 3.4517 56.9432 4.27239 56.9432 5.2379C56.9432 6.5172 56.6776 7.53099 56.1466 8.27926C55.6156 9.02753 54.819 9.5827 53.757 9.94476L57.1845 16.124H52.5501L49.4363 10.5241H48.2294V16.124H43.957V16.1482ZM48.2536 7.21719H50.1363C51.0294 7.21719 51.7053 7.07237 52.0915 6.80685C52.5018 6.54134 52.6949 6.05858 52.6949 5.35859C52.6949 4.68273 52.5018 4.19997 52.0915 3.93446C51.6811 3.66894 51.0294 3.52412 50.1363 3.52412H48.2536V7.21719Z" fill="#111111"/>
<path d="M64.1345 16.3903C63.4345 16.3903 62.7104 16.2938 61.9621 16.1248C61.2138 15.9317 60.538 15.6179 59.9345 15.1593C59.3311 14.7007 58.8242 14.0731 58.4621 13.3007C58.0759 12.5283 57.8828 11.5386 57.8828 10.3317C57.8828 9.10072 58.0759 8.11107 58.4621 7.31452C58.8483 6.51797 59.3311 5.91453 59.9345 5.45591C60.538 4.99729 61.2138 4.6835 61.938 4.51454C62.6621 4.34557 63.3862 4.24902 64.1104 4.24902C64.8104 4.24902 65.5345 4.34557 66.2828 4.51454C67.031 4.6835 67.7069 4.99729 68.3103 5.45591C68.9138 5.91453 69.4207 6.54211 69.7827 7.31452C70.1689 8.11107 70.362 9.10072 70.362 10.3317C70.362 11.5386 70.1689 12.5283 69.7827 13.3007C69.3965 14.0731 68.9138 14.7007 68.3103 15.1593C67.7069 15.6179 67.031 15.9317 66.2828 16.1248C65.5586 16.2938 64.8345 16.3903 64.1345 16.3903ZM64.1345 13.3972C64.8586 13.3972 65.3414 13.1317 65.631 12.5766C65.9207 12.0214 66.0655 11.2731 66.0655 10.3559C66.0655 9.94554 66.0414 9.5352 65.969 9.17313C65.9207 8.81106 65.8 8.47313 65.6552 8.20762C65.5103 7.9421 65.2931 7.72486 65.0517 7.58004C64.8104 7.43521 64.4966 7.33866 64.1345 7.33866C63.4104 7.33866 62.9276 7.60417 62.638 8.15934C62.3483 8.71451 62.2035 9.43864 62.2035 10.3559C62.2035 10.7662 62.2276 11.1766 62.3 11.5386C62.3483 11.9007 62.469 12.2386 62.6138 12.5041C62.7586 12.7697 62.9517 13.011 63.1931 13.1559C63.4345 13.3248 63.7483 13.3972 64.1345 13.3972Z" fill="#111111"/>
<path d="M73.9584 20.6384C72.9205 20.6384 72.0998 20.5901 71.4964 20.4694C70.893 20.3488 70.4102 20.2522 70.0723 20.1557L70.9654 16.8488C71.1343 16.8971 71.424 16.9695 71.8826 17.066C72.3171 17.1626 72.8481 17.2108 73.4516 17.2108C73.7171 17.2108 73.9585 17.1626 74.1274 17.066C74.3205 16.9695 74.4412 16.8005 74.5619 16.535L74.6826 16.2453L70.2412 4.49023H74.6826L76.855 11.1764H76.9033L79.0757 4.49023H83.2515L78.3515 17.3798C77.9653 18.3936 77.4584 19.1901 76.8067 19.7694C76.0826 20.3246 75.1653 20.6384 73.9584 20.6384Z" fill="#111111"/>
<path d="M86.1963 16.3179C85.7859 16.3179 85.3514 16.2455 84.9652 16.1248C84.5549 16.0041 84.217 15.7869 83.9032 15.5214C83.5894 15.2558 83.348 14.9179 83.1549 14.4834C82.9618 14.0731 82.8652 13.5662 82.8652 13.011C82.8652 11.6835 83.4687 10.6455 84.6756 9.89726C85.8825 9.14899 87.6928 8.71451 90.1066 8.59382V8.449C90.1066 8.15934 90.01 7.91796 89.8411 7.749C89.6721 7.5559 89.3342 7.48349 88.8031 7.48349C88.1273 7.48349 87.4756 7.60417 86.8721 7.84555C86.2687 8.08693 85.7135 8.40072 85.2066 8.73865L83.4204 6.2766C83.6859 6.03522 83.9997 5.79384 84.3618 5.55246C84.7238 5.31109 85.1583 5.09385 85.6652 4.90074C86.148 4.70764 86.7273 4.56281 87.3549 4.44213C87.9824 4.32144 88.6824 4.24902 89.479 4.24902C91.2169 4.24902 92.4479 4.65937 93.1962 5.45591C93.9445 6.25246 94.3065 7.50762 94.3065 9.14899V13.3248C94.3065 14.0248 94.3307 14.6041 94.379 15.0386C94.4272 15.4972 94.5238 15.8593 94.6203 16.1489H90.3479C90.2755 15.9076 90.2031 15.6421 90.1548 15.3524C90.1066 15.0869 90.0824 14.7731 90.0824 14.4352C89.5997 15.0386 89.0445 15.5214 88.4411 15.8352C87.8135 16.1731 87.0652 16.3179 86.1963 16.3179ZM88.0066 13.1317C88.5376 13.1317 88.9721 13.0593 89.2859 12.9145C89.5997 12.7697 89.8652 12.6248 90.0583 12.4559V10.7904C89.0204 10.8145 88.248 10.9593 87.7652 11.2248C87.2825 11.4904 87.0411 11.8524 87.0411 12.2869C87.0411 12.5766 87.1376 12.7938 87.3066 12.9145C87.5238 13.0593 87.7411 13.1317 88.0066 13.1317Z" fill="#111111"/>
<path d="M96.625 16.1482V0H100.946V16.1482H96.625Z" fill="#111111"/>
<path d="M108.742 16.3174C107.752 16.3174 106.956 16.2449 106.376 16.076C105.797 15.907 105.363 15.6656 105.073 15.3518C104.783 15.0381 104.59 14.6518 104.518 14.1932C104.445 13.7346 104.397 13.2277 104.397 12.6726V7.55534H102.49V4.44157H104.397V0.53125H108.718V4.46571H111.711V7.55534H108.718V11.6829C108.718 12.3105 108.814 12.7208 109.032 12.9381C109.225 13.1312 109.635 13.2519 110.263 13.2519C110.456 13.2519 110.673 13.2277 110.89 13.2036C111.132 13.1794 111.301 13.1553 111.397 13.107V16.1243C111.349 16.1484 111.204 16.1484 111.011 16.1725C110.818 16.1967 110.576 16.2208 110.311 16.2449C110.045 16.2691 109.78 16.2932 109.514 16.2932C109.201 16.2932 108.959 16.3174 108.742 16.3174Z" fill="#111111"/>
<path d="M115.886 20.6384C114.848 20.6384 114.028 20.5901 113.424 20.4694C112.821 20.3488 112.338 20.2522 112 20.1557L112.893 16.8488C113.062 16.8971 113.352 16.9695 113.81 17.066C114.245 17.1626 114.776 17.2108 115.379 17.2108C115.645 17.2108 115.886 17.1626 116.055 17.066C116.248 16.9695 116.369 16.8005 116.49 16.535L116.61 16.2453L112.169 4.49023H116.61L118.783 11.1764H118.831L121.003 4.49023H125.179L120.207 17.3315C119.821 18.3453 119.314 19.1419 118.662 19.7212C118.01 20.3246 117.093 20.6384 115.886 20.6384Z" fill="#111111"/>
<path d="M43.957 37.5582V21.1445H55.688V24.8376H48.3984V27.4928H53.588V30.9686H48.3984V34.01H56.0501V37.5824H43.957V37.5582Z" fill="#111111"/>
<path d="M56.3633 37.5591L60.3702 31.4281L56.6529 25.6592H61.2391L62.8805 28.4109L64.3529 25.6592H68.746L64.9805 31.4522L68.9149 37.5591H64.3287L62.5184 34.5177L60.7805 37.5591H56.3633Z" fill="#111111"/>
<path d="M74.7084 37.8244C74.0084 37.8244 73.3084 37.7278 72.5843 37.5588C71.8602 37.3657 71.2084 37.052 70.605 36.5933C70.0016 36.1347 69.5429 35.5071 69.1567 34.7106C68.7947 33.914 68.6016 32.9003 68.6016 31.6692C68.6016 30.4141 68.7947 29.4003 69.205 28.6037C69.6153 27.8072 70.1222 27.1796 70.7498 26.6968C71.3774 26.2382 72.0533 25.9003 72.7774 25.7313C73.5015 25.5624 74.2015 25.4658 74.8532 25.4658C75.7222 25.4658 76.4705 25.5624 77.0739 25.7796C77.6774 25.9969 78.2084 26.2624 78.6187 26.6244C79.0291 26.9624 79.367 27.3727 79.6325 27.8313C79.898 28.2899 80.1153 28.7486 80.2842 29.2555L76.5912 30.4141C76.3981 29.6899 76.1567 29.2072 75.867 28.9899C75.5774 28.7486 75.2153 28.652 74.805 28.652C74.1291 28.652 73.6705 28.9175 73.405 29.4968C73.1395 30.052 72.9946 30.8003 72.9946 31.7175C72.9946 32.152 73.0188 32.5382 73.0671 32.9244C73.1153 33.3106 73.2119 33.6244 73.3326 33.914C73.4774 34.2037 73.6464 34.4209 73.8877 34.5899C74.1291 34.7589 74.4188 34.8313 74.7808 34.8313C74.9498 34.8313 75.1429 34.8071 75.336 34.7589C75.5291 34.7106 75.6981 34.614 75.867 34.4692C76.036 34.3244 76.205 34.1313 76.3498 33.8899C76.4946 33.6485 76.6153 33.3106 76.736 32.9244L80.3808 34.1554C80.2118 34.5899 79.9705 35.0485 79.6808 35.483C79.3911 35.9175 79.0291 36.3278 78.5705 36.6899C78.1118 37.052 77.5808 37.3416 76.9532 37.5588C76.3015 37.7037 75.5532 37.8244 74.7084 37.8244Z" fill="#111111"/>
<path d="M81.7559 37.5582V21.1445H86.1489V27.5169C86.2938 27.2997 86.4627 27.0824 86.68 26.841C86.8972 26.5997 87.1627 26.3824 87.5006 26.1652C87.8144 25.9479 88.2006 25.779 88.6351 25.6342C89.0696 25.4893 89.5524 25.4169 90.1075 25.4169C90.5661 25.4169 91.0006 25.4652 91.411 25.5859C91.8213 25.7066 92.1834 25.8997 92.4972 26.1652C92.811 26.4307 93.0523 26.7928 93.2454 27.2273C93.4385 27.6617 93.511 28.1928 93.511 28.8445V37.5341H89.1179V30.2927C89.1179 29.8824 89.0455 29.5686 88.9006 29.3272C88.7558 29.11 88.4903 28.9893 88.1282 28.9893C87.742 28.9893 87.38 29.0617 87.0662 29.2307C86.7524 29.3996 86.4386 29.5928 86.1489 29.8341V37.5099H81.7559V37.5582Z" fill="#111111"/>
<path d="M98.3878 37.7519C97.9533 37.7519 97.543 37.6795 97.1326 37.5588C96.7223 37.414 96.3602 37.2209 96.0464 36.9554C95.7326 36.6899 95.4671 36.3278 95.274 35.8933C95.0809 35.4589 94.9844 34.952 94.9844 34.3727C94.9844 33.0209 95.5878 31.9589 96.8188 31.1865C98.0499 30.4141 99.8843 29.9796 102.346 29.8589V29.7141C102.346 29.4244 102.25 29.183 102.081 28.9899C101.912 28.7968 101.55 28.7244 101.043 28.7244C100.343 28.7244 99.6912 28.8451 99.0637 29.1106C98.4361 29.352 97.8809 29.6658 97.374 30.0279L95.5637 27.5417C95.8292 27.3003 96.143 27.0589 96.5292 26.8175C96.9154 26.5762 97.3499 26.3348 97.8568 26.1417C98.3637 25.9486 98.9188 25.7796 99.5706 25.6589C100.198 25.5382 100.922 25.4658 101.719 25.4658C103.481 25.4658 104.736 25.8762 105.484 26.6968C106.233 27.5175 106.619 28.7727 106.619 30.4623V34.7106C106.619 35.4106 106.643 36.014 106.691 36.4726C106.739 36.9313 106.836 37.3175 106.957 37.6071H102.612C102.539 37.3657 102.467 37.1002 102.419 36.8106C102.371 36.5209 102.346 36.2071 102.346 35.8692C101.864 36.4968 101.308 36.9554 100.681 37.2933C100.053 37.583 99.2809 37.7519 98.3878 37.7519ZM100.271 34.4933C100.826 34.4933 101.26 34.4209 101.574 34.2761C101.888 34.1313 102.153 33.9865 102.346 33.7934V32.1037C101.284 32.1278 100.512 32.2727 100.005 32.5382C99.5223 32.8037 99.2809 33.1658 99.2809 33.6244C99.2809 33.914 99.3774 34.1313 99.5464 34.2761C99.7395 34.4209 99.9809 34.4933 100.271 34.4933Z" fill="#111111"/>
<path d="M108.912 25.6581H113.305V27.4926C113.45 27.2753 113.619 27.0581 113.836 26.8167C114.053 26.5753 114.319 26.3581 114.657 26.1409C114.971 25.9236 115.357 25.7546 115.791 25.6098C116.226 25.465 116.709 25.3926 117.264 25.3926C117.722 25.3926 118.157 25.4409 118.567 25.5615C118.978 25.6822 119.34 25.8753 119.653 26.1409C119.967 26.4064 120.209 26.7684 120.402 27.2029C120.595 27.6374 120.691 28.1684 120.691 28.8201V37.5097H116.298V30.2684C116.298 29.8581 116.226 29.5443 116.081 29.3029C115.936 29.0857 115.671 28.965 115.309 28.965C114.922 28.965 114.56 29.0374 114.247 29.2063C113.933 29.3753 113.619 29.5684 113.329 29.8098V37.4856H108.936V25.6581H108.912Z" fill="#111111"/>
<path d="M127.763 41.9996C126.604 41.9996 125.639 41.9514 124.842 41.8307C124.045 41.71 123.418 41.541 122.911 41.3238C122.428 41.1065 122.066 40.841 121.849 40.5031C121.632 40.1893 121.535 39.8272 121.535 39.4169C121.535 39.1272 121.583 38.8859 121.704 38.6445C121.825 38.4031 121.97 38.21 122.139 38.0169C122.308 37.8238 122.525 37.679 122.742 37.5342C122.959 37.3893 123.177 37.2686 123.418 37.1479C122.935 36.7859 122.718 36.3273 122.718 35.7721C122.718 35.2169 122.911 34.71 123.273 34.2514C123.635 33.7928 124.07 33.4066 124.552 33.0928C123.877 32.7066 123.37 32.2238 123.032 31.6204C122.694 31.017 122.525 30.3652 122.525 29.6652C122.525 29.0859 122.645 28.5308 122.863 28.0239C123.104 27.517 123.442 27.0584 123.901 26.6722C124.359 26.286 124.963 25.9722 125.663 25.7549C126.363 25.5377 127.183 25.417 128.125 25.417C129.09 25.417 129.911 25.5377 130.635 25.7791C131.335 26.0204 131.914 26.3342 132.349 26.7446C132.783 26.3584 133.29 26.0446 133.894 25.8273C134.497 25.6101 135.052 25.4894 135.559 25.4411V28.7239C135.39 28.7239 135.149 28.7239 134.811 28.748C134.473 28.7721 134.063 28.8204 133.604 28.917C133.628 29.0135 133.628 29.1342 133.628 29.2549C133.628 29.3756 133.628 29.5204 133.628 29.6652C133.628 30.2445 133.507 30.7997 133.29 31.3066C133.073 31.8135 132.735 32.2721 132.276 32.6583C131.818 33.0445 131.239 33.3583 130.563 33.5756C129.863 33.7928 129.066 33.9135 128.125 33.9135C127.811 33.9135 127.497 33.8894 127.183 33.8652C126.894 33.8411 126.604 33.7928 126.339 33.7445C126.218 33.9376 126.17 34.0825 126.17 34.179C126.17 34.3962 126.266 34.5169 126.483 34.5652C126.701 34.6135 126.966 34.6376 127.328 34.6618L128.801 34.71C129.959 34.7342 130.925 34.8307 131.721 34.9755C132.518 35.1204 133.17 35.3376 133.676 35.6273C134.183 35.9169 134.545 36.279 134.763 36.7135C135.004 37.148 135.101 37.6548 135.101 38.2583C135.101 38.91 134.907 39.4652 134.545 39.9238C134.159 40.3824 133.652 40.7686 133.001 41.0824C132.349 41.3962 131.576 41.6134 130.683 41.7824C129.766 41.9272 128.801 41.9996 127.763 41.9996ZM128.511 39.8997C129.308 39.8997 129.983 39.8272 130.49 39.6824C131.021 39.5376 131.287 39.3203 131.287 39.0066C131.287 38.8617 131.263 38.741 131.214 38.6204C131.166 38.5238 131.045 38.4272 130.828 38.3548C130.611 38.2824 130.297 38.2341 129.887 38.1859C129.476 38.1376 128.873 38.1135 128.149 38.0652L126.459 37.9928C126.17 37.9928 125.904 37.9686 125.639 37.9204C125.542 38.1617 125.494 38.379 125.494 38.5721C125.494 39.0548 125.711 39.3686 126.17 39.5617C126.652 39.8031 127.425 39.8997 128.511 39.8997ZM128.173 31.5963C128.68 31.5963 129.09 31.4273 129.332 31.0894C129.597 30.7514 129.718 30.3411 129.718 29.8583C129.718 29.3756 129.597 28.9894 129.332 28.6273C129.066 28.2894 128.68 28.1204 128.173 28.1204C127.666 28.1204 127.256 28.2894 127.014 28.6273C126.749 28.9652 126.628 29.3756 126.628 29.8583C126.628 30.3411 126.749 30.7273 127.014 31.0894C127.28 31.4273 127.666 31.5963 128.173 31.5963Z" fill="#111111"/>
<path d="M142.391 37.8241C141.571 37.8241 140.774 37.7275 140.026 37.5344C139.253 37.3413 138.578 37.0034 137.974 36.5448C137.371 36.0862 136.888 35.4344 136.526 34.6379C136.164 33.8414 135.971 32.8276 135.971 31.6448C135.971 30.4379 136.188 29.4483 136.598 28.6517C137.009 27.8552 137.54 27.2276 138.191 26.7448C138.819 26.2621 139.519 25.9242 140.243 25.7311C140.967 25.538 141.643 25.4414 142.247 25.4414C142.633 25.4414 143.043 25.4655 143.478 25.538C143.912 25.5862 144.347 25.7069 144.781 25.8759C145.215 26.0448 145.626 26.2862 146.012 26.6C146.398 26.9138 146.736 27.3242 147.026 27.831C147.315 28.3379 147.557 28.9414 147.726 29.6655C147.895 30.3896 147.991 31.2345 147.991 32.2241V32.9H140.364C140.412 33.2862 140.509 33.6 140.653 33.8655C140.798 34.1069 140.943 34.3241 141.16 34.4689C141.353 34.6138 141.595 34.7103 141.86 34.7586C142.126 34.8069 142.415 34.831 142.753 34.831C143.067 34.831 143.381 34.8069 143.719 34.7344C144.033 34.662 144.347 34.5896 144.66 34.4689C144.95 34.3482 145.24 34.2276 145.505 34.1069C145.771 33.9862 146.012 33.8655 146.205 33.7448L147.774 36.4C147.026 36.8827 146.181 37.2448 145.288 37.4862C144.322 37.7034 143.381 37.8241 142.391 37.8241ZM144.081 30.3655C143.984 29.6655 143.791 29.1586 143.478 28.8931C143.164 28.6276 142.729 28.4828 142.222 28.4828C141.788 28.4828 141.426 28.6276 141.088 28.8931C140.774 29.1828 140.533 29.6655 140.388 30.3414H144.081V30.3655Z" fill="#111111"/>
<path d="M37.5825 10.6689V7.28961L29.3998 12.2861L21.8688 0H18.4895L26.9378 13.8068L25.3205 14.7965L16.2206 0H12.8413L22.8343 16.3171L21.2654 17.2826L10.6689 0H7.28961L12.2861 8.18271L0 15.7137V19.093L13.8068 10.6448L14.7723 12.2137L0 21.2895V24.6688L16.293 14.6758L17.2826 16.293L0 26.9136V30.2929L8.18271 25.2964L15.7137 37.5825H19.093L10.6448 23.7757L12.1172 22.8826L21.1447 37.5825H24.524L14.5792 21.3619L16.3171 20.2999L26.9136 37.5825H30.2929L25.2964 29.3998L37.5825 21.8688V18.4895L23.7757 26.9378L22.8102 25.3447L37.5825 16.2689V12.8896L21.2895 22.8585L20.2999 21.2654L37.5825 10.6689Z" fill="#111111"/>
</svg>
