<?xml version="1.0" encoding="utf-8"?>
<!-- Generator: Adobe Illustrator 24.3.0, SVG Export Plug-In . SVG Version: 6.00 Build 0)  -->
<svg version="1.1" id="Website_Updated_Header_Logo"
	 xmlns="http://www.w3.org/2000/svg" xmlns:xlink="http://www.w3.org/1999/xlink" x="0px" y="0px" viewBox="0 0 2731.9 287.4"
	 style="enable-background:new 0 0 2731.9 287.4;" xml:space="preserve">
<style type="text/css">
	.st0{enable-background:new    ;}
	.st1{fill:#444444;}
	.st2{fill:#3D3D3D;}
	.st3{fill-rule:evenodd;clip-rule:evenodd;fill:#717171;}
	.st4{fill:#00579F;}
	.st5{fill:#59595B;}
	.st6{clip-path:url(#SVGID_2_);fill:none;stroke:#FFFFFF;stroke-width:7.6456;stroke-linejoin:round;stroke-miterlimit:10;}
	.st7{fill:#D5C298;}
	.st8{clip-path:url(#SVGID_4_);fill:none;stroke:#FFFFFF;stroke-width:7.6456;stroke-linejoin:round;stroke-miterlimit:10;}
	.st9{fill:#719C57;}
	.st10{fill:none;stroke:#FFFFFF;stroke-width:7.6456;stroke-linejoin:round;stroke-miterlimit:10;}
	.st11{fill:#E8BA20;}
	.st12{fill:#A02F22;}
	.st13{fill:#F59221;}
	.st14{clip-path:url(#SVGID_6_);fill:none;stroke:#FFFFFF;stroke-width:7.6456;stroke-linejoin:round;stroke-miterlimit:10;}
	.st15{fill:#542F8F;}
	.st16{clip-path:url(#SVGID_8_);fill:none;stroke:#FFFFFF;stroke-width:7.6456;stroke-linejoin:round;stroke-miterlimit:10;}
	.st17{fill:#6DCCF3;}
	.st18{clip-path:url(#SVGID_10_);fill:none;stroke:#FFFFFF;stroke-width:7.6456;stroke-linejoin:round;stroke-miterlimit:10;}
	.st19{fill:#00A8A4;}
	.st20{clip-path:url(#SVGID_12_);fill:none;stroke:#FFFFFF;stroke-width:7.6456;stroke-linejoin:round;stroke-miterlimit:10;}
</style>
<g class="st0">
	<path class="st1" d="M2718.9,200.4c0-13.4-4.8-26.6-12.8-26.6c-6.6,0-10,8.8-10,17.1c0,8.4,4.2,21.2,14.9,17.7l0.8,4.2
		c0,0-3.9,1.9-8.4,1.9c-12.8,0-19.5-10.3-19.5-20.3c0-11.8,8.2-25.6,23.7-25.6c15.9,0,23.9,14.6,23.9,29.8
		c0,20.2-13.3,43.5-39.8,43.5l-0.6-4.5C2711.1,236.5,2718.9,217.1,2718.9,200.4z"/>
	<path class="st1" d="M2663,200.4c0-13.4-4.8-26.6-12.8-26.6c-6.6,0-10,8.8-10,17.1c0,8.4,4.2,21.2,14.9,17.7l0.8,4.2
		c0,0-3.9,1.9-8.4,1.9c-12.8,0-19.5-10.3-19.5-20.3c0-11.8,8.2-25.6,23.7-25.6c15.9,0,23.9,14.6,23.9,29.8
		c0,20.2-13.3,43.5-39.8,43.5l-0.6-4.5C2655.2,236.5,2663,217.1,2663,200.4z"/>
	<path class="st1" d="M2607.1,200.4c0-13.4-4.8-26.6-12.8-26.6c-6.6,0-10,8.8-10,17.1c0,8.4,4.2,21.2,14.9,17.7l0.8,4.2
		c0,0-3.9,1.9-8.4,1.9c-12.8,0-19.5-10.3-19.5-20.3c0-11.8,8.2-25.6,23.7-25.6c15.9,0,23.9,14.6,23.9,29.8
		c0,20.2-13.3,43.5-39.8,43.5l-0.6-4.5C2599.3,236.5,2607.1,217.1,2607.1,200.4z"/>
	<path class="st1" d="M2530.2,237.1l5.7-0.3c7.1-0.4,7.5-3.5,7.5-6.6V185c0-6.7-0.5-7-3.6-6.3l-10.9,2.7l-0.7-5
		c18.7-5.1,27.8-8.6,27.8-8.6l0.3,0.3c0,0-1.4,4.2-1.4,12.4v49.6c0,3.2-0.5,5.7-0.5,5.7l13.6,1l-0.4,3.7l-37.3,0.6v-4L2530.2,237.1
		L2530.2,237.1z"/>
</g>
<g>
	<path class="st1" d="M2480.1,191.7c9.3,0,18.2,5.8,18.7,18.1c0,0-3.7,1.4-5.8,1.7l-24.7,3.6l-1,1.3c0.7,9,5.4,17.6,16.9,17.6
		c8.2,0,13.3-4.8,13.3-4.8l1.2,2.7c0,0-5.6,10.3-18.6,10.3c-15.3,0-23.1-11.8-23.1-24.3C2456.9,203.4,2466.8,191.7,2480.1,191.7z
		 M2467.3,210.9l20.2-2.7c0,0-0.6-12.1-9.2-12.1C2471.7,196.2,2467.9,203,2467.3,210.9z"/>
	<path class="st1" d="M2433.6,191.7c6.4,0,16.9,2.3,16.9,8.3c0,2.2-1.7,4.3-4.6,4.3c-5.6,0-5.9-8.6-13.4-8.6
		c-8,0-12.4,8.7-12.4,18.6c0,10.5,5.1,19.7,17,19.7c7.6,0,12.4-4,12.4-4l1.2,2.5c0,0-5.2,9.7-18.1,9.7c-14.9,0-22.8-11.9-22.8-24.2
		C2409.8,205.3,2418.1,191.7,2433.6,191.7z"/>
	<path class="st1" d="M2348.7,238c4.6-0.5,6.4-3.1,6.4-6.9v-25.6c0-4.5-0.1-7.1-3.2-7.1h-4.6v-3.1c11.4-2,18.9-5.1,18.9-5.1l0.3,0.3
		c0,0-1,3-1.2,12.4c3.7-5.3,10.7-11.2,19.5-11.2c7.3,0,12.4,4,12.4,14.3v25c0,3.2-0.5,5.6-0.5,5.6l8.7,1.1l-0.4,2.9l-24.1,0.6v-3.3
		c4.2-0.5,5.5-3.1,5.5-6.9v-22c0-7.7-2.5-9.7-6.8-9.7s-9.8,2.1-13.8,5.8v25.8c0,3.2-0.5,5.6-0.5,5.6l7.7,1.1l-0.4,2.9l-24,0.6V238
		H2348.7L2348.7,238z"/>
	<path class="st1" d="M2318.1,238c4.6-0.5,6.4-3.1,6.4-6.9v-25.6c0-4.5-0.1-7.1-3.2-7.1h-4.6v-3.1c14.2-2.9,19.4-5.1,19.4-5.1
		l0.2,0.3c0,0-1.1,3.5-1.1,12.1V231c0,3.2-0.5,5.7-0.5,5.7l8.8,1l-0.4,2.9l-25,0.6L2318.1,238L2318.1,238z M2322.3,175.1
		c0-3.6,3-6.5,6.7-6.5s6.7,2.9,6.7,6.5c0,3.7-3,6.5-6.7,6.5S2322.3,178.8,2322.3,175.1z"/>
	<path class="st1" d="M2268.4,220.9h3.8c0,13.4,8.4,16.8,15.4,16.8c6.4,0,12.6-3,12.6-10.4c0-17.6-33-17.2-33-39.1
		c0-10.9,8.1-19.2,24.2-19.2c7,0,14.3,1.5,18.1,2l-3.4,17h-3.8c0.6-8-3-14.4-12-14.4c-7.1,0-12.5,3.5-12.5,10.3
		c0,17.7,33,15.9,33,39c0,13.2-10.9,19.4-24.1,19.4c-9.3,0-21-3.1-21.1-10.9C2265.6,229.9,2265.9,228.1,2268.4,220.9z"/>
</g>
<g>
	<path class="st1" d="M1838.5,237.7c4.5-0.5,7.3-3,7.3-6.6v-50.3c0-5.1-0.5-6.2-8.4-7.7v-2.9h26.9c18.9,0,26.1,8.1,26.1,17.1
		c0,9.4-8.3,15.9-13.6,18.9v1.6l15.3,22.7c4.5,6.4,6.5,6.6,8.9,6.8l1.2,0.1l-0.4,3.6h-17.6l-0.4-0.3c0,0-1.8-5-6.4-11.7l-12.6-18.9
		h-6.4l-1.2,1.2v19.8c0,3.1-0.5,5.4-0.5,5.4l9.5,1l-0.4,3.2l-27.4,0.6L1838.5,237.7L1838.5,237.7z M1865.7,205.4
		c5.6,0,12.1-5.1,12.1-15.2c0-8.3-4.3-15.3-16-15.3h-3.4l-1.2,1.2v29.3H1865.7z"/>
	<path class="st1" d="M1927.1,191.7c9.3,0,18.2,5.8,18.7,18.1c0,0-3.7,1.4-5.8,1.7l-24.7,3.6l-1,1.3c0.7,9,5.4,17.6,16.9,17.6
		c8.2,0,13.3-4.8,13.3-4.8l1.2,2.7c0,0-5.6,10.3-18.6,10.3c-15.3,0-23.1-11.8-23.1-24.3C1903.9,203.4,1913.9,191.7,1927.1,191.7z
		 M1914.3,210.9l20.2-2.7c0,0-0.6-12.1-9.2-12.1C1918.8,196.2,1914.9,203,1914.3,210.9z"/>
	<path class="st1" d="M1954.5,226.5h3.4c0.6,9,6.9,11.8,11.8,11.8c4.7,0,7.8-2.5,7.8-6.7c0-10.9-23.4-9.9-23.4-25.8
		c0-8.6,6.7-14.1,17.6-14.1c6.3,0,13.8,1.9,13.8,1.9l-2.2,11.5h-3.4c-0.2-8.5-6.6-9.4-9.1-9.4c-5,0-7.2,3-7.2,6.4
		c0,11,23.3,8.8,23.3,25.6c0,9.5-7.5,14.6-17.7,14.6c-5.5,0-16.2-1.5-16.2-7.3C1952.9,232.6,1954.5,226.5,1954.5,226.5z"/>
	<path class="st1" d="M2017.1,191.7c9.3,0,18.2,5.8,18.7,18.1c0,0-3.7,1.4-5.8,1.7l-24.7,3.6l-1,1.3c0.7,9,5.4,17.6,16.9,17.6
		c8.2,0,13.3-4.8,13.3-4.8l1.2,2.7c0,0-5.6,10.3-18.6,10.3c-15.3,0-23.1-11.8-23.1-24.3C1993.9,203.4,2003.8,191.7,2017.1,191.7z
		 M2004.3,210.9l20.2-2.7c0,0-0.6-12.1-9.2-12.1C2008.7,196.2,2004.9,203,2004.3,210.9z"/>
	<path class="st1" d="M2065.3,213.7l3.6-0.5c0.1-2.9,0.1-8.5-0.4-11.2c-0.7-3.5-2.5-6-5.9-6c-6.7,0-10.8,10.7-10.8,10.7h-4l-2-8.6
		c0,0,8.2-6.3,20.9-6.3c10.5,0,13.2,4.1,13.2,15.2v24.2c0,3.3,0.4,5,2.8,5c2.5,0,5.3-2,5.3-2l1.5,2.5c0,0-5.1,5.6-12.1,5.6
		c-4.6,0-8-2.4-8-7.3v-2.3c0,0-5.5,9.5-15.8,9.5c-6.7,0-11.6-4.6-11.6-11.2C2041.8,220.6,2054.3,215.4,2065.3,213.7z M2068.9,230.1
		v-12.8l-3.1,0.5c-5.8,1-12.7,4-12.7,10.9c0,3.8,2.2,6.4,5.6,6.4C2062.2,235.1,2066.4,232.2,2068.9,230.1z"/>
	<path class="st1" d="M2092.7,238c4.6-0.5,6.4-3.1,6.4-6.9v-25.5c0-4.5-0.1-7.1-3.2-7.1h-4.6v-3.1c11.4-2.1,19-5.2,19-5.2l0.3,0.3
		c0,0-1,3-1.3,13.3c1.8-3.4,7.8-12.1,14.6-12.1c3.3,0,6,2.1,6,5.5c0,3.3-2.3,5.8-5.7,5.8c-2.9,0-3.3-1.9-5.8-1.9
		c-3.5,0-7.3,3.5-8.6,5V231c0,3.2-0.5,5.7-0.5,5.7l9.9,1l-0.4,2.9l-26.1,0.6L2092.7,238L2092.7,238z"/>
	<path class="st1" d="M2157.4,191.7c6.4,0,16.9,2.3,16.9,8.3c0,2.2-1.7,4.3-4.6,4.3c-5.6,0-5.9-8.6-13.4-8.6
		c-8,0-12.4,8.7-12.4,18.6c0,10.5,5.1,19.7,17,19.7c7.6,0,12.4-4,12.4-4l1.2,2.5c0,0-5.2,9.7-18.1,9.7c-14.9,0-22.8-11.9-22.8-24.2
		C2133.6,205.3,2141.9,191.7,2157.4,191.7z"/>
	<path class="st1" d="M2179.9,238c4.7-0.5,6.4-3.1,6.4-6.9v-53.7c0-4.5-0.1-7.1-3.2-7.1h-4.2v-3.1c14.3-3,19-5.1,19-5.1l0.3,0.3
		c0,0-1.1,3.9-1.1,12.1v19.6c0,5.1-0.4,7.6-0.4,8.6c3.8-5.2,10.7-11,19.5-11c7.3,0,12.3,4,12.3,14.3v25c0,3.2-0.5,5.6-0.5,5.6
		l8.8,1.1l-0.4,2.9l-24.2,0.6v-3.3c4-0.5,5.5-3.1,5.5-6.9v-22c0-7.7-2.5-9.7-6.7-9.7c-4.3,0-9.9,2.2-13.9,5.7v25.9
		c0,3.2-0.5,5.7-0.5,5.7l7.7,1l-0.4,2.9l-24,0.6L2179.9,238L2179.9,238z"/>
</g>
<g class="st0">
	<path class="st2" d="M1784,237.6c4.6-0.6,6.4-3.1,6.4-7v-54c0-4.5-0.1-7.2-3.2-7.2h-4.3v-3.1c14.3-3,19.1-5.1,19.1-5.1l0.3,0.3
		c0,0-1,3.9-1,12.2v56.9c0,3.2-0.6,5.8-0.6,5.8l8.8,0.9l-0.5,2.9l-25.1,0.7L1784,237.6L1784,237.6z"/>
	<path class="st2" d="M1757.4,213.1l3.6-0.6c0.1-2.9,0.1-8.6-0.5-11.4c-0.7-3.5-2.5-6-6-6c-6.7,0-10.9,10.8-10.9,10.8h-4l-2-8.7
		c0,0,8.2-6.3,20.9-6.3c10.5,0,13.2,4.2,13.2,15.3v24.4c0,3.4,0.5,5,2.8,5c2.5,0,5.3-2,5.3-2l1.5,2.6c0,0-5.1,5.7-12.1,5.7
		c-4.6,0-8-2.4-8-7.3v-2.2c0,0-5.6,9.6-15.8,9.6c-6.7,0-11.6-4.6-11.6-11.4C1733.8,220.1,1746.4,214.9,1757.4,213.1z M1761,229.6
		v-12.9l-3.1,0.6c-5.9,0.9-12.7,4.1-12.7,11c0,3.8,2.2,6.4,5.7,6.4S1758.5,231.7,1761,229.6z"/>
	<path class="st2" d="M1704.3,237.6c4.6-0.6,6.4-3.1,6.4-7v-25.8c0-4.5-0.1-7.2-3.2-7.2h-4.6v-3.1c14.2-2.9,19.4-5.1,19.4-5.1
		l0.2,0.3c0,0-1,3.5-1,12.2v28.7c0,3.2-0.6,5.8-0.6,5.8l8.8,0.9l-0.5,2.9l-25.1,0.7v-3.4L1704.3,237.6L1704.3,237.6z M1708.4,174.3
		c0-3.6,3-6.5,6.7-6.5c3.7,0,6.7,2.9,6.7,6.5c0,3.7-3,6.5-6.7,6.5C1711.5,180.8,1708.4,178,1708.4,174.3z"/>
	<path class="st2" d="M1680.8,191c6.4,0,16.9,2.3,16.9,8.4c0,2.2-1.7,4.4-4.6,4.4c-5.7,0-6-8.7-13.4-8.7c-8,0-12.5,8.7-12.5,18.7
		c0,10.6,5.1,19.8,17,19.8c7.6,0,12.5-4.1,12.5-4.1l1.2,2.6c0,0-5.2,9.7-18.2,9.7c-14.9,0-22.9-12-22.9-24.4
		C1656.9,204.7,1665.3,191,1680.8,191z"/>
	<path class="st2" d="M1595.5,237.6c4.6-0.6,6.4-3.1,6.4-7v-25.8c0-4.5-0.1-7.2-3.2-7.2h-4.6v-3.1c11.3-2,19-5.1,19-5.1l0.3,0.3
		c0,0-0.9,3-1.2,12.5c3.7-5.3,10.8-11.4,19.5-11.4c7.3,0,12.5,4.1,12.5,14.4v25.2c0,3.2-0.6,5.7-0.6,5.7l8.7,1l-0.5,2.9l-24.2,0.7
		v-3.4c4.3-0.6,5.6-3.1,5.6-7v-22c0-7.8-2.5-9.7-6.8-9.7s-9.8,2.1-13.9,5.9v26c0,3.2-0.6,5.7-0.6,5.7l7.8,1l-0.5,2.9l-24.1,0.7v-3.4
		L1595.5,237.6L1595.5,237.6z"/>
	<path class="st2" d="M1563,213.1l3.6-0.6c0.1-2.9,0.1-8.6-0.5-11.4c-0.7-3.5-2.5-6-6-6c-6.7,0-10.9,10.8-10.9,10.8h-4l-2-8.7
		c0,0,8.2-6.3,20.9-6.3c10.5,0,13.2,4.2,13.2,15.3v24.4c0,3.4,0.5,5,2.8,5c2.5,0,5.3-2,5.3-2l1.5,2.6c0,0-5.1,5.7-12.1,5.7
		c-4.6,0-8-2.4-8-7.3v-2.2c0,0-5.6,9.6-15.8,9.6c-6.7,0-11.6-4.6-11.6-11.4C1539.6,220.1,1552.1,214.9,1563,213.1z M1566.7,229.6
		v-12.9l-3.1,0.6c-5.9,0.9-12.7,4.1-12.7,11c0,3.8,2.2,6.4,5.7,6.4S1564.2,231.7,1566.7,229.6z"/>
	<path class="st2" d="M1479.2,237.6c4.6-0.6,6.4-3.1,6.4-7v-25.8c0-4.5-0.1-7.2-3.2-7.2h-4.6v-3.1c11.3-2,19-5.1,19-5.1l0.3,0.3
		c0,0-0.9,3-1.2,12.5c3.7-5.3,10.8-11.4,19.5-11.4c7.3,0,12.5,4.1,12.5,14.4v25.2c0,3.2-0.6,5.7-0.6,5.7l8.7,1l-0.5,2.9l-24.2,0.7
		v-3.4c4.3-0.6,5.6-3.1,5.6-7v-22c0-7.8-2.5-9.7-6.8-9.7s-9.8,2.1-13.9,5.9v26c0,3.2-0.6,5.7-0.6,5.7l7.8,1l-0.5,2.9l-24.1,0.7v-3.4
		L1479.2,237.6L1479.2,237.6z"/>
	<path class="st2" d="M1448.5,237.6c4.6-0.6,6.4-3.1,6.4-7v-25.8c0-4.5-0.1-7.2-3.2-7.2h-4.6v-3.1c14.2-2.9,19.4-5.1,19.4-5.1
		l0.2,0.3c0,0-1,3.5-1,12.2v28.7c0,3.2-0.6,5.8-0.6,5.8l8.8,0.9l-0.5,2.9l-25.1,0.7v-3.4L1448.5,237.6L1448.5,237.6z M1452.7,174.3
		c0-3.6,3-6.5,6.7-6.5c3.7,0,6.7,2.9,6.7,6.5c0,3.7-3,6.5-6.7,6.5C1455.7,180.8,1452.7,178,1452.7,174.3z"/>
	<path class="st2" d="M1393.5,237.3c4.6-0.6,7.3-3.1,7.3-7v-50.2c0-5.1-0.6-6.2-8.4-7.8v-2.9h44.3c4.4,0,7.9-0.5,7.9-0.5l-3.4,18.2
		h-3.8c0.6-11-3-13-11.5-13h-12.5l-1.2,1.2v27.2h18.5l0.8-6l4.2-0.7v19.4h-5.2v-7.9h-17.1l-1.2,1.2v21.9c0,3.2-0.6,5.8-0.6,5.8
		l11.7,0.9l-0.5,3.2l-29.6,0.7v-3.7H1393.5z"/>
</g>
<g class="st0">
	<path class="st1" d="M1939.1,74.6l-15.9,50.3l-5-1.3l-24.4-61.7c-1.8-4.6-6.2-5.8-6.2-5.8v-2.9h6.3c6.5,0,12.8-0.4,12.8-0.4
		l0.4,0.4c-1.3,2.5-1.8,6.7-0.6,9.8l14.5,38.8c0.7,2,1.5,4.8,1.9,6.8l13.2-41.6l-1.9-5.1c-1.8-4.6-6.2-5.8-6.2-5.8v-2.9h6.3
		c6.5,0,12.8-0.4,12.8-0.4l0.4,0.4c-1.3,2.5-1.8,6.7-0.6,9.8l13.8,39c0.6,1.9,1.4,4.5,1.9,6.5l13.7-43.2c1.5-4.9,0.6-7.6-5-9.2v-2.9
		h16.7l0.4,1.7c0,0-3.9,2-7,11.1l-18.6,58.9l-5.1-1.3L1939.1,74.6z"/>
	<path class="st1" d="M2014.2,74.7c15.7,0,24.4,10,24.4,23.3s-8.5,27.2-25.9,27.2c-15.2,0-24.2-10.4-24.2-24.2
		C1988.5,88.5,1995.8,74.7,2014.2,74.7z M2014.2,121.2c9,0,12.5-10.8,12.5-20.6c-0.1-10.1-3.9-21.9-13.7-21.9
		c-8.8,0-12.6,9.7-12.6,19.6C2000.4,108.9,2004.4,121.2,2014.2,121.2z"/>
	<path class="st1" d="M2045.8,121c4.6-0.5,6.4-3.1,6.4-6.9V88.6c0-4.5-0.1-7.1-3.2-7.1h-4.6v-3.1c11.4-2.1,19-5.2,19-5.2l0.3,0.3
		c0,0-1,3-1.3,13.3c1.8-3.4,7.8-12.1,14.6-12.1c3.3,0,6,2.1,6,5.5c0,3.3-2.3,5.8-5.7,5.8c-2.9,0-3.3-1.9-5.8-1.9
		c-3.5,0-7.3,3.5-8.6,5V114c0,3.2-0.5,5.7-0.5,5.7l9.9,1l-0.4,2.9l-26.1,0.6L2045.8,121L2045.8,121z"/>
	<path class="st1" d="M2086,121c4.7-0.5,6.4-3.1,6.4-6.9V60.4c0-4.5-0.1-7.1-3.2-7.1h-4.2v-3.1c14.3-3,19-5.1,19-5.1l0.3,0.3
		c0,0-1.1,3.9-1.1,12.1V114c0,3.2-0.5,5.7-0.5,5.7l8.8,1l-0.4,2.9l-25,0.6V121H2086z"/>
	<path class="st1" d="M2143.8,74.7c3.5,0,6.7,0.5,6.7,0.5V60.4c0-4.5-0.1-7.1-3.2-7.1h-4.2v-3.1c14.3-3,19-5.1,19-5.1l0.3,0.3
		c0,0-1.1,3.9-1.1,12.1v56.2c0,6,2.4,6,5.9,6h2.8l-0.3,3.1c-12.7,1.2-19.1,2-19.1,2l-0.2-0.2c0,0,0.5-3.1,0.5-5.7v-2
		c-2.9,4.5-7.8,8.4-14.9,8.4c-12.2,0-19.7-10.7-19.7-22.8C2116.3,88.8,2125.8,74.7,2143.8,74.7z M2150.5,114.4V84.9
		c0-5-3.7-5.6-6.6-5.6c-10.2,0-16.2,8.5-16.2,19.6c0,9.2,4.2,19.1,13.2,19.1C2144.9,118,2148.4,115.9,2150.5,114.4z"/>
	<path class="st1" d="M2176.1,93.4h26.5v7.6h-26.5V93.4z"/>
	<path class="st1" d="M2250.8,51.9c8.5,0,18.2,2.1,23.9,2.7l-3.2,16.3h-3.8c-0.2-10.8-9.2-14.4-18.4-14.4
		c-16.7,0-25.9,13.4-25.9,29.4c0,19.4,13.6,31.3,30.2,31.3c12.7,0,20.9-7.4,20.9-7.4l1.6,2.4c0,0-8.3,13-27.4,13
		c-20.9,0-37.2-14.9-37.2-35.7C2211.6,69.4,2226.4,51.9,2250.8,51.9z"/>
	<path class="st1" d="M2282.4,121c4.7-0.5,6.4-3.1,6.4-6.9V60.4c0-4.5-0.1-7.1-3.2-7.1h-4.2v-3.1c14.3-3,19-5.1,19-5.1l0.3,0.3
		c0,0-1.1,3.9-1.1,12.1V114c0,3.2-0.5,5.7-0.5,5.7l8.8,1l-0.4,2.9l-25,0.6V121H2282.4z"/>
	<path class="st1" d="M2335.2,96.7l3.6-0.5c0.1-2.9,0.1-8.5-0.4-11.2c-0.7-3.5-2.5-6-5.9-6c-6.7,0-10.8,10.7-10.8,10.7h-4l-2-8.6
		c0,0,8.2-6.3,20.9-6.3c10.5,0,13.2,4.1,13.2,15.2v24.2c0,3.3,0.4,5,2.8,5c2.5,0,5.3-2,5.3-2l1.5,2.5c0,0-5.1,5.6-12.1,5.6
		c-4.6,0-8-2.4-8-7.3v-2.3c0,0-5.5,9.5-15.8,9.5c-6.7,0-11.6-4.6-11.6-11.2C2311.8,103.6,2324.3,98.4,2335.2,96.7z M2338.8,113.1
		v-12.8l-3.1,0.5c-5.8,1-12.7,4-12.7,10.9c0,3.8,2.2,6.4,5.6,6.4C2332.2,118.1,2336.4,115.2,2338.8,113.1z"/>
	<path class="st1" d="M2364.2,109.5h3.4c0.6,9,6.9,11.8,11.8,11.8c4.7,0,7.8-2.5,7.8-6.7c0-10.9-23.4-9.9-23.4-25.8
		c0-8.6,6.7-14.1,17.6-14.1c6.3,0,13.8,1.9,13.8,1.9l-2.2,11.5h-3.4c-0.2-8.5-6.6-9.4-9.1-9.4c-5,0-7.2,3-7.2,6.4
		c0,11,23.3,8.8,23.3,25.6c0,9.5-7.5,14.6-17.7,14.6c-5.5,0-16.2-1.5-16.2-7.3C2362.6,115.6,2364.2,109.5,2364.2,109.5z"/>
	<path class="st1" d="M2405.2,109.5h3.4c0.6,9,6.9,11.8,11.8,11.8c4.7,0,7.8-2.5,7.8-6.7c0-10.9-23.4-9.9-23.4-25.8
		c0-8.6,6.7-14.1,17.6-14.1c6.3,0,13.8,1.9,13.8,1.9l-2.2,11.5h-3.4c-0.2-8.5-6.6-9.4-9.1-9.4c-5,0-7.2,3-7.2,6.4
		c0,11,23.3,8.8,23.3,25.6c0,9.5-7.5,14.6-17.7,14.6c-5.5,0-16.2-1.5-16.2-7.3C2403.6,115.6,2405.2,109.5,2405.2,109.5z"/>
</g>
<g class="st0">
	<path class="st1" d="M1393,120.7c4.6-0.5,7.3-2.8,7.3-6.6V63.8c0-5.1-0.5-6.2-8.4-7.7v-2.9h30.1c21,0,40.5,8.6,40.5,32.7
		c0,24.2-18.8,38.1-44.2,38.1h-8.8c-6.2,0-16.5,0.3-16.5,0.3V120.7z M1418.3,119.2c22.1,0,31.5-12.4,31.5-30.6
		c0-18.4-9.8-30.7-28-30.7h-8.9l-1.2,1.2v54.1c0,3.2-0.5,5.9-0.5,5.9L1418.3,119.2L1418.3,119.2z"/>
	<path class="st1" d="M1493.5,74.7c9.3,0,18.2,5.8,18.7,18.1c0,0-3.7,1.4-5.8,1.7l-24.7,3.6l-1,1.3c0.7,9,5.4,17.6,16.9,17.6
		c8.2,0,13.3-4.8,13.3-4.8l1.2,2.7c0,0-5.6,10.3-18.6,10.3c-15.3,0-23.1-11.8-23.1-24.3C1470.3,86.4,1480.3,74.7,1493.5,74.7z
		 M1480.7,93.9l20.2-2.7c0,0-0.6-12.1-9.2-12.1C1485.1,79.2,1481.3,86,1480.7,93.9z"/>
	<path class="st1" d="M1518.4,121c4.7-0.5,6.4-3.1,6.4-6.9V60.4c0-4.5-0.1-7.1-3.2-7.1h-4.2v-3.1c14.3-3,19-5.1,19-5.1l0.3,0.3
		c0,0-1.1,3.9-1.1,12.1V114c0,3.2-0.5,5.7-0.5,5.7l8.8,1l-0.4,2.9l-25,0.6V121H1518.4z"/>
	<path class="st1" d="M1549,121c4.6-0.5,6.4-3.1,6.4-6.9V88.5c0-4.5-0.1-7.1-3.2-7.1h-4.6v-3.1c14.2-2.9,19.4-5.1,19.4-5.1l0.2,0.3
		c0,0-1.1,3.5-1.1,12.1V114c0,3.2-0.5,5.7-0.5,5.7l8.8,1l-0.4,2.9l-25,0.6L1549,121L1549,121z M1553.1,58.1c0-3.6,3-6.5,6.7-6.5
		s6.7,2.9,6.7,6.5c0,3.7-3,6.5-6.7,6.5S1553.1,61.8,1553.1,58.1z"/>
	<path class="st1" d="M1581.7,85c-2.1-5.4-6-6.2-6-6.2v-2.9h5c7.8,0,12.7-0.4,12.7-0.4l0.4,0.4c-0.7,1.6-1.7,5.7-0.2,9.8l7.7,20.7
		c0.6,1.9,1.4,4.5,1.9,6.5l11.7-26.3c1.9-4.5-1-6.7-5.5-7.7V76h15l0.5,1.7c0,0-1.5,0.6-3.7,5.5l-18.6,42.1l-5.6-1.4L1581.7,85z"/>
	<path class="st1" d="M1651.7,74.7c9.3,0,18.2,5.8,18.7,18.1c0,0-3.7,1.4-5.8,1.7l-24.7,3.6l-1,1.3c0.7,9,5.4,17.6,16.9,17.6
		c8.2,0,13.3-4.8,13.3-4.8l1.2,2.7c0,0-5.6,10.3-18.6,10.3c-15.3,0-23.1-11.8-23.1-24.3C1628.4,86.4,1638.4,74.7,1651.7,74.7z
		 M1638.8,93.9l20.2-2.7c0,0-0.6-12.1-9.2-12.1C1643.3,79.2,1639.5,86,1638.8,93.9z"/>
	<path class="st1" d="M1677.5,121c4.6-0.5,6.4-3.1,6.4-6.9V88.6c0-4.5-0.1-7.1-3.2-7.1h-4.6v-3.1c11.4-2.1,19-5.2,19-5.2l0.3,0.3
		c0,0-1,3-1.3,13.3c1.8-3.4,7.8-12.1,14.6-12.1c3.3,0,6,2.1,6,5.5c0,3.3-2.3,5.8-5.7,5.8c-2.9,0-3.3-1.9-5.8-1.9
		c-3.5,0-7.3,3.5-8.6,5V114c0,3.2-0.5,5.7-0.5,5.7l9.9,1l-0.4,2.9l-26.1,0.6L1677.5,121L1677.5,121z"/>
	<path class="st1" d="M1719,121c4.6-0.5,6.4-3.1,6.4-6.9V88.5c0-4.5-0.1-7.1-3.2-7.1h-4.6v-3.1c14.2-2.9,19.4-5.1,19.4-5.1l0.2,0.3
		c0,0-1.1,3.5-1.1,12.1V114c0,3.2-0.5,5.7-0.5,5.7l8.8,1l-0.4,2.9l-25,0.6L1719,121L1719,121z M1723.2,58.1c0-3.6,3-6.5,6.7-6.5
		s6.7,2.9,6.7,6.5c0,3.7-3,6.5-6.7,6.5C1726.1,64.6,1723.2,61.8,1723.2,58.1z"/>
	<path class="st1" d="M1810.2,124h-25v-3.4c0.8-0.1,1.7-0.1,2.6-0.2s1.7-0.2,2.4-0.4c1-0.3,1.7-0.9,2.1-1.6c0.5-0.8,0.7-1.8,0.7-3
		V89c0-3.6-0.9-6.4-2.6-8.4s-3.8-3-6.3-3c-1.8,0-3.5,0.3-5,0.9s-2.9,1.3-4,2.1c-1.1,0.8-2.1,1.6-2.7,2.6c-0.7,0.9-1.2,1.6-1.5,2.2
		v29.3c0,1.2,0.2,2.1,0.7,2.9s1.2,1.3,2.2,1.8c0.7,0.3,1.5,0.6,2.4,0.8c0.8,0.2,1.7,0.3,2.6,0.4v3.4h-25v-3.4
		c0.8-0.1,1.6-0.1,2.5-0.2c0.8-0.1,1.6-0.2,2.2-0.4c1-0.3,1.7-0.9,2.1-1.6s0.7-1.8,0.7-3V83.8c0-1.2-0.3-2.3-0.8-3.2
		c-0.5-1-1.2-1.8-2.1-2.4c-0.7-0.4-1.4-0.7-2.3-0.9s-1.9-0.3-2.9-0.4v-3.4l17-1.1l0.7,0.7v7.2h0.3c0.8-0.8,1.9-1.8,3.1-3
		s2.4-2.1,3.5-2.8c1.3-0.8,2.8-1.5,4.6-2.1c1.8-0.6,3.7-0.8,6-0.8c4.9,0,8.5,1.5,10.9,4.6s3.5,7.1,3.5,12.2V115
		c0,1.2,0.2,2.2,0.6,2.9c0.4,0.7,1.1,1.3,2.1,1.7c0.8,0.3,1.5,0.6,2.1,0.7s1.4,0.2,2.5,0.3v3.4H1810.2L1810.2,124z"/>
	<path class="st1" d="M1830.3,107.4c-7.4-2-13.3-7.2-13.3-15.7c0-11,9.8-17,20.6-17c6.4,0,9,2.1,14.5,2.1h5.1c3.4,0,7-1.4,7-1.4
		l-1,7.4h-5.1c-1.9,0-3.3-0.2-3.6-0.2c0.3,0.3,3.9,3.5,3.9,9.7c0,10-10,15.9-20.9,15.9c-1.8,0-3.5-0.1-5.2-0.4
		c-0.7,0.8-2.1,2.7-2.1,4c0,2.9,6.3,3.6,13.7,5.1c9.1,1.8,19.3,4.7,19.3,13.7c0,10.7-14.3,18.5-27.3,18.5c-9.4,0-20.7-4-20.7-12.7
		c0-7.3,8-10.5,13.4-12.5c-5.2-1.5-9.2-3.5-9.2-7.4C1819.5,111.4,1826.5,109.1,1830.3,107.4z M1831.2,124.4c-2.2,1.7-6,5.3-6,10.4
		c0,6.4,6.2,9.9,12.8,9.9c7,0,15.3-3.8,15.3-9.9c0-5.2-6-7-13.9-8.7C1836.6,125.4,1833.8,124.9,1831.2,124.4z M1847.5,92.4
		c0-6.5-3.1-13.5-10.1-13.5c-6.8,0-9.4,6.2-9.4,12.6s2.8,12.6,9.9,12.6C1844.9,104.1,1847.5,98.5,1847.5,92.4z"/>
</g>
<path class="st3" d="M1296.5,17.6h5.4v252.2h-5.4V17.6z"/>
<g id="Logo-4C-Horizontal-SMALL" class="st0">
	<path class="st4" d="M293.5,119.1h6c0,20,12.7,24.9,22.2,24.9c8.3,0,16.7-4.1,16.7-13.4c0-23.9-47.2-23.1-47.2-55.7
		c0-16.4,12.1-28.9,35.9-28.9c9,0,19.1,1.7,27.4,2.9l-5,25.4h-6c0.3-11.6-4.1-20.6-17.6-20.6c-10.2,0-16.7,5.2-16.7,13.3
		c0,24.2,47.2,21.4,47.2,55.3c0,19.7-15.9,29.4-35.5,29.4c-13.8,0-31.5-4.3-32-15.6C288.9,134.4,289.4,131.1,293.5,119.1
		L293.5,119.1z"/>
	<path class="st4" d="M389.4,144.7c6.4-0.8,10.2-4.4,10.2-9.9v-79h-13.2c-9.8,0-14.4,3.1-20.5,18.5h-6l4.7-27.4c0,0,4,0.9,10.2,0.9
		H450c6.3,0,11-0.9,11-0.9l-4.7,27.4h-6c0-15.4-5-18.5-16.5-18.5h-12.1l-1.8,1.8v77.1c0,4.6-0.8,8.3-0.8,8.3l15.3,1.4l-0.6,5
		l-44.6,0.9v-5.6L389.4,144.7L389.4,144.7z"/>
	<path class="st4" d="M494.2,71.6l-14.8,38.7h28.3l-9.6-26.9C496.8,80.2,495.2,74.6,494.2,71.6L494.2,71.6z M449.1,144.7
		c6-0.6,8.9-3.8,10.2-7.2l35.5-88.8l9.3-2l33.5,87c2.6,6.9,4.9,10.5,10.7,11.3l-0.6,4.9h-6.3c-7.2,0-29.8,0.6-29.8,0.6v-6
		c4.1-0.1,7.8-1.5,6.1-6.1l-7.2-19.7h-32.6l-2.6,1.8l-8.6,22.5l13.1,1.7l-0.9,5.2h-30v-5.2H449.1z"/>
	<path class="st4" d="M554.2,144.7c6.9-0.8,11-4,11-9.5V69.5c0-9.8-2.3-13.6-12.4-17v-4.6h4.4c7.5,0,20-0.6,20-0.6s1.8,3.7,6,7.9
		l53.5,56.4c2,2.1,4.4,5,6.3,7.3V64.6c0-6.7-0.2-10.4-12.4-11.6v-5h30.9l0.8,2.9c0,0-10.5,2.7-10.5,15.4v84.4h-6.5L580.2,81
		c-2.1-2.1-4.6-5.2-6.3-7.5v61.8c0,4.6-0.8,8.3-0.8,8.3l13.8,0.9l-0.6,5l-32.1,0.9L554.2,144.7L554.2,144.7z"/>
	<path class="st4" d="M671.4,119.1h6c0,20,12.7,24.9,22.2,24.9c8.3,0,16.7-4.1,16.7-13.4c0-23.9-47.2-23.1-47.2-55.7
		c0-16.4,12.1-28.9,35.9-28.9c9,0,19.1,1.7,27.4,2.9l-5,25.4h-6c0.3-11.6-4.1-20.6-17.6-20.6c-10.2,0-16.7,5.2-16.7,13.3
		c0,24.2,47.2,21.4,47.2,55.3c0,19.7-15.9,29.4-35.5,29.4c-13.8,0-31.5-4.3-32-15.6C666.8,134.4,667.3,131.1,671.4,119.1
		L671.4,119.1z"/>
	<path class="st4" d="M789,93.5c3.8-0.3,11.5-6.9,11.5-19.6c0-9.6-4.1-18-17.6-18h-4.4l-1.8,1.8v35.8H789L789,93.5z M784.2,141.9
		c14.5,0,22.2-8.4,22.2-18.5c0-11.3-8.6-22-25.5-22h-2.4l-1.8,1.8v30.3c0,4.6-0.8,8.4-0.8,8.4H784.2L784.2,141.9z M745.8,144.7
		c6.4-0.8,10.2-4,10.2-9.5V63.6c0-7.3-0.8-8.9-11.8-11.2v-4.6h39.3c28,0,38.8,10.2,38.8,22.3c0,14.5-16,23.2-20.9,25.5
		c9.5,2,27.4,7.9,27.4,25.4c0,16.1-15.6,28.7-42.8,28.7h-14.1c-10.2,0-26.1,0.5-26.1,0.5L745.8,144.7L745.8,144.7z"/>
	<path class="st4" d="M836.3,144.7c6.4-0.8,10.2-4,10.2-9.5V63.6c0-7.3-0.8-8.9-11.8-11.2v-4.6h66.6c6.3,0,11.8-0.6,11.8-0.6
		l-4.8,27.1h-6c0.8-15.7-4.3-18.5-16.5-18.5h-17l-1.8,1.8v36.2h25.5l1.2-8.9l6.4-0.9v29.2h-8v-11.5h-23.4l-1.8,1.8v29.7
		c0,4.6-0.8,8.6-0.8,8.6h21.3c13.2,0,15-2,22.6-18h6l-5.7,26h-48c-10.2,0-26.1,0.5-26.1,0.5L836.3,144.7L836.3,144.7z"/>
	<path class="st4" d="M968.3,98.5c6.7,0,14.7-7,14.7-21.2c0-12.2-6-21.4-20.2-21.4H959l-1.8,1.8v40.8H968.3L968.3,98.5z
		 M926.4,144.7c6.3-0.8,10.2-4.3,10.2-9.5V63.6c0-7.3-0.8-8.9-11.8-11.2v-4.6h43.3c26.9,0,37.3,11.9,37.3,24.6
		c0,12.5-10.9,21.4-18.8,26.3v2.6l22.2,33.3c6,8.9,8.9,9,11.6,9.3l1.7,0.2l-0.6,5.7h-29.3l-0.6-0.6c0,0-2-6.6-8.7-16.7l-17.3-26.1
		H959l-1.8,1.8v26.9c0,4.4-0.8,7.8-0.8,7.8l13.8,1.4l-0.6,5l-43.1,0.9v-5.5L926.4,144.7L926.4,144.7z"/>
	<path class="st4" d="M1067.6,98.5c6.7,0,14.7-7,14.7-21.2c0-12.2-6-21.4-20.2-21.4h-3.8l-1.8,1.8v40.8H1067.6L1067.6,98.5z
		 M1025.7,144.7c6.3-0.8,10.2-4.3,10.2-9.5V63.6c0-7.3-0.8-8.9-11.8-11.2v-4.6h43.3c26.9,0,37.3,11.9,37.3,24.6
		c0,12.5-10.8,21.4-18.8,26.3v2.6l22.2,33.3c6,8.9,8.9,9,11.6,9.3l1.7,0.2l-0.6,5.7h-29.3l-0.6-0.6c0,0-2-6.6-8.7-16.7l-17.3-26.1
		h-6.6l-1.8,1.8v26.9c0,4.4-0.8,7.8-0.8,7.8l13.8,1.4l-0.6,5l-43.1,0.9L1025.7,144.7L1025.7,144.7z"/>
	<path class="st4" d="M1139.3,144.7c6.4-0.8,10.2-4.4,10.2-9.9v-30l-28.1-45.6c-3.7-6-8.1-6.7-8.1-6.7v-4.6h8.1
		c13.6,0,21.7-0.6,21.7-0.6l0.6,0.6c0,0-2.8,6,0.3,11l16.8,28.4c1.4,2.4,3.1,5.8,4.3,8.6l20.7-33.9c2.4-4,1.7-8.3-6.1-9.5v-4.6h26
		l0.8,2.9c0,0-4.7,1.7-9.2,8.7l-27.2,43.4v31.8c0,4.6-0.8,8.3-0.8,8.3l13,1.4l-0.6,5l-42.3,0.9v-5.6H1139.3z"/>
	<path class="st5" d="M454.6,210.8c6.1,0,9.7-3.3,9.7-8.1v-0.2c0-5.4-3.8-8.2-9.9-8.2h-12.5v16.5H454.6L454.6,210.8z M429.2,183
		h26.2c7.3,0,12.9,2,16.7,5.8c3.2,3.2,4.9,7.7,4.9,13.1v0.2c0,9.2-5,15.1-12.3,17.8l14,20.4H464L451.7,222h-0.2h-9.7v18.3h-12.6
		L429.2,183L429.2,183z"/>
	<polygon class="st5" points="514.6,183 557.8,183 557.8,194.2 527.1,194.2 527.1,205.8 554.1,205.8 554.1,217 527.1,217 527.1,229
		558.2,229 558.2,240.3 514.6,240.3 	"/>
	<path class="st5" d="M591.6,231.9l7.4-8.9c5.2,4.3,10.6,7,17.1,7c5.2,0,8.3-2.1,8.3-5.4v-0.2c0-3.2-2-4.8-11.5-7.3
		c-11.5-2.9-19-6.1-19-17.5v-0.2c0-10.4,8.3-17.3,20-17.3c8.3,0,15.5,2.6,21.3,7.3l-6.5,9.5c-5.1-3.5-10.1-5.6-14.9-5.6
		c-4.8,0-7.4,2.2-7.4,5v0.2c0,3.8,2.5,5,12.4,7.5c11.6,3,18.2,7.2,18.2,17.2v0.2c0,11.4-8.7,17.8-21,17.8
		C607.2,241.1,598.4,238,591.6,231.9L591.6,231.9z"/>
	<polygon class="st5" points="674,183 717.2,183 717.2,194.2 686.6,194.2 686.6,205.8 713.6,205.8 713.6,217 686.6,217 686.6,229
		717.6,229 717.6,240.3 674,240.3 	"/>
	<path class="st5" d="M787.9,216.3l-7.6-18.6l-7.6,18.6H787.9L787.9,216.3z M774.7,182.6h11.6l24.5,57.7h-13.2l-5.2-12.8h-24.2
		l-5.2,12.8h-12.8L774.7,182.6L774.7,182.6z"/>
	<path class="st5" d="M871.2,210.8c6.1,0,9.7-3.3,9.7-8.1v-0.2c0-5.4-3.8-8.2-9.9-8.2h-12.5v16.5H871.2L871.2,210.8z M845.8,183H872
		c7.3,0,12.9,2,16.7,5.8c3.2,3.2,4.9,7.7,4.9,13.1v0.2c0,9.2-5,15.1-12.3,17.8l14,20.4h-14.7l-12.3-18.4h-0.2h-9.7v18.3h-12.6
		L845.8,183L845.8,183z"/>
	<path class="st5" d="M928.6,211.8v-0.2c0-16.3,12.3-29.6,29.9-29.6c10.8,0,17.3,3.6,22.6,8.8l-8,9.2c-4.4-4-8.9-6.5-14.6-6.5
		c-9.7,0-16.6,8-16.6,17.8v0.2c0,9.8,6.8,18,16.6,18c6.6,0,10.6-2.6,15.1-6.7l8,8.1c-5.9,6.3-12.4,10.2-23.5,10.2
		C941.1,241.2,928.6,228.2,928.6,211.8L928.6,211.8z"/>
	<polygon class="st5" points="1017.7,183 1030.3,183 1030.3,205.7 1053.5,205.7 1053.5,183 1066.1,183 1066.1,240.3 1053.5,240.3
		1053.5,217.3 1030.3,217.3 1030.3,240.3 1017.7,240.3 	"/>
	<polygon class="st4" points="185.5,38.8 125,3.8 64.4,38.8 125,73.7 	"/>
	<g>
		<g>
			<g>
				<g>
					<g>
						<g>
							<defs>
								<rect id="SVGID_1_" width="1206.4" height="287.4"/>
							</defs>
							<clipPath id="SVGID_2_">
								<use xlink:href="#SVGID_1_"  style="overflow:visible;"/>
							</clipPath>
							<polygon class="st6" points="185.5,38.8 125,3.8 64.4,38.8 125,73.7 							"/>
						</g>
					</g>
				</g>
			</g>
		</g>
	</g>
	<polygon class="st7" points="3.8,73.7 64.4,38.8 125,73.7 64.4,108.7 	"/>
	<g>
		<g>
			<g>
				<g>
					<g>
						<g>
							<defs>
								<rect id="SVGID_3_" width="1206.4" height="287.4"/>
							</defs>
							<clipPath id="SVGID_4_">
								<use xlink:href="#SVGID_3_"  style="overflow:visible;"/>
							</clipPath>
							<polygon class="st8" points="3.8,73.7 64.4,38.8 125,73.7 64.4,108.7 							"/>
						</g>
					</g>
				</g>
			</g>
		</g>
	</g>
	<polygon class="st9" points="246.1,73.7 185.5,38.8 125,73.7 185.5,108.7 	"/>
	<polygon class="st10" points="246.1,73.7 185.5,38.8 125,73.7 185.5,108.7 	"/>
	<polygon class="st11" points="185.5,178.6 185.5,108.7 246.1,73.7 246.1,143.7 	"/>
	<polygon class="st10" points="185.5,178.6 185.5,108.7 246.1,73.7 246.1,143.7 	"/>
	<polygon class="st12" points="185.5,248.6 185.5,178.6 246.1,143.7 246.1,213.6 	"/>
	<polygon class="st10" points="185.5,248.6 185.5,178.6 246.1,143.7 246.1,213.6 	"/>
	<polygon class="st13" points="64.4,178.6 64.4,108.7 3.8,73.7 3.8,143.7 	"/>
	<g>
		<g>
			<g>
				<g>
					<g>
						<g>
							<defs>
								<rect id="SVGID_5_" width="1206.4" height="287.4"/>
							</defs>
							<clipPath id="SVGID_6_">
								<use xlink:href="#SVGID_5_"  style="overflow:visible;"/>
							</clipPath>
							<polygon class="st14" points="64.4,178.6 64.4,108.7 3.8,73.7 3.8,143.7 							"/>
						</g>
					</g>
				</g>
			</g>
		</g>
	</g>
	<polygon class="st15" points="64.4,248.6 64.4,178.6 3.8,143.7 3.8,213.6 	"/>
	<g>
		<g>
			<g>
				<g>
					<g>
						<g>
							<defs>
								<rect id="SVGID_7_" width="1206.4" height="287.4"/>
							</defs>
							<clipPath id="SVGID_8_">
								<use xlink:href="#SVGID_7_"  style="overflow:visible;"/>
							</clipPath>
							<polygon class="st16" points="64.4,248.6 64.4,178.6 3.8,143.7 3.8,213.6 							"/>
						</g>
					</g>
				</g>
			</g>
		</g>
	</g>
	<polygon class="st17" points="185.5,178.6 125,213.6 125,283.5 185.5,248.6 	"/>
	<g>
		<g>
			<g>
				<g>
					<g>
						<g>
							<defs>
								<rect id="SVGID_9_" width="1206.4" height="287.4"/>
							</defs>
							<clipPath id="SVGID_10_">
								<use xlink:href="#SVGID_9_"  style="overflow:visible;"/>
							</clipPath>
							<polygon class="st18" points="185.5,178.6 125,213.6 125,283.5 185.5,248.6 							"/>
						</g>
					</g>
				</g>
			</g>
		</g>
	</g>
	<polygon class="st19" points="64.4,178.6 125,213.6 125,283.5 64.4,248.6 	"/>
	<g>
		<g>
			<g>
				<g>
					<g>
						<g>
							<defs>
								<rect id="SVGID_11_" width="1206.4" height="287.4"/>
							</defs>
							<clipPath id="SVGID_12_">
								<use xlink:href="#SVGID_11_"  style="overflow:visible;"/>
							</clipPath>
							<polygon class="st20" points="64.4,178.6 125,213.6 125,283.5 64.4,248.6 							"/>
						</g>
					</g>
				</g>
			</g>
		</g>
	</g>
</g>
</svg>
